<svg version="1.0" xmlns="http://www.w3.org/2000/svg"
 width="485.000000pt" height="392.000000pt" viewBox="0 0 485.000000 392.000000"
 preserveAspectRatio="xMidYMid meet">

<g transform="translate(0.000000,392.000000) scale(0.100000,-0.100000)"
fill="#000000" stroke="none">
<path d="M1088 3450 c-164 -28 -301 -167 -328 -335 -13 -79 -13 -2029 0 -2108
29 -177 164 -310 340 -338 42 -6 528 -9 1340 -7 1069 3 1281 5 1310 17 61 25
116 69 148 118 17 26 123 280 236 563 l206 516 0 79 c0 63 -5 91 -24 130 -27
58 -89 118 -155 149 l-46 21 -1310 0 c-1095 0 -1317 -2 -1350 -14 -64 -22
-122 -68 -152 -119 -16 -26 -101 -229 -190 -452 l-162 -405 0 922 c-1 690 2
929 11 950 17 41 68 92 107 109 48 20 846 21 895 0 18 -7 90 -68 160 -135 141
-135 204 -180 295 -211 101 -34 185 -39 592 -40 425 0 427 0 486 -62 46 -48
53 -75 53 -214 l0 -124 100 0 100 0 0 98 c0 53 -4 123 -10 155 -24 151 -120
265 -270 324 -39 15 -102 18 -500 22 l-455 6 -66 31 c-51 25 -96 60 -203 164
-149 142 -197 173 -303 190 -69 12 -787 11 -855 0z m3033 -1419 c22 -22 29
-39 29 -68 0 -59 -394 -1039 -433 -1075 l-29 -28 -1288 0 -1288 0 -31 29 c-23
21 -31 38 -31 63 0 46 400 1044 433 1081 l25 27 1292 0 1292 0 29 -29z"/>
</g>
</svg>
