<?xml version="1.0" standalone="no"?>
<!DOCTYPE svg PUBLIC "-//W3C//DTD SVG 20010904//EN"
 "http://www.w3.org/TR/2001/REC-SVG-20010904/DTD/svg10.dtd">
<svg version="1.0" xmlns="http://www.w3.org/2000/svg"
 width="413.000000pt" height="401.000000pt" viewBox="0 0 413.000000 401.000000"
 preserveAspectRatio="xMidYMid meet">

<g transform="translate(0.000000,401.000000) scale(0.100000,-0.100000)"
fill="#000000" stroke="none">
<path d="M1805 3497 c-140 -21 -186 -67 -234 -232 -62 -212 -70 -237 -81 -250
-6 -7 -60 -40 -120 -74 l-109 -62 -138 38 c-258 70 -342 57 -430 -66 -84 -116
-92 -128 -132 -211 -71 -145 -83 -184 -70 -238 19 -76 35 -98 166 -232 l124
-129 3 -120 c1 -66 -1 -126 -4 -135 -3 -8 -51 -63 -106 -123 -56 -60 -113
-122 -126 -138 -37 -45 -61 -118 -56 -167 7 -58 92 -233 166 -343 81 -119 81
-119 129 -144 61 -31 124 -27 308 19 87 22 167 40 176 40 17 0 168 -85 207
-117 13 -10 30 -44 41 -83 87 -297 102 -330 169 -374 56 -37 251 -53 433 -36
l133 13 51 51 c42 42 55 64 74 126 12 41 39 127 59 190 l37 115 75 42 c152 87
117 83 316 34 196 -49 225 -49 316 -6 49 23 61 36 125 133 72 110 141 244 164
320 11 37 10 50 -5 97 -17 56 -43 89 -201 253 -38 40 -74 80 -79 89 -6 12 -10
135 -6 251 0 8 56 71 124 140 207 211 214 249 91 492 -26 52 -127 204 -159
239 -48 53 -177 79 -262 52 -16 -5 -84 -24 -152 -41 l-122 -32 -68 40 c-37 21
-88 51 -114 66 -51 29 -45 14 -123 270 -68 220 -99 241 -375 250 -81 3 -167 0
-215 -7z m378 -219 c9 -11 17 -27 17 -36 0 -8 9 -47 20 -86 11 -39 25 -89 32
-111 44 -162 70 -189 275 -295 142 -73 177 -75 387 -22 87 22 164 38 171 36
24 -10 195 -290 195 -320 0 -5 -54 -67 -120 -137 -66 -70 -132 -149 -147 -174
-27 -46 -27 -48 -25 -226 1 -216 -4 -204 166 -387 63 -69 116 -133 116 -144 0
-40 -155 -308 -185 -320 -6 -2 -83 13 -171 35 -223 54 -247 53 -381 -17 -220
-115 -232 -130 -292 -345 -23 -85 -48 -165 -54 -178 -18 -36 -62 -43 -235 -39
-131 3 -155 6 -166 20 -7 10 -30 82 -51 160 -63 234 -81 258 -270 364 -161 89
-193 92 -420 35 l-160 -41 -35 40 c-33 37 -131 200 -157 262 -12 28 -10 31
104 153 64 69 127 140 140 157 40 54 50 111 48 263 -2 182 -7 192 -168 368
-70 75 -127 144 -127 151 0 34 144 282 182 314 12 9 49 3 179 -29 233 -58 249
-56 460 59 93 51 150 106 172 164 9 23 32 104 53 178 20 74 40 143 45 152 11
21 95 27 269 21 100 -4 117 -7 133 -25z"/>
<path d="M1913 2449 c-71 -9 -180 -50 -238 -90 -129 -89 -209 -220 -235 -384
-21 -137 29 -304 125 -416 86 -100 186 -157 327 -185 81 -15 94 -16 175 -1
237 44 404 206 450 439 42 211 -59 441 -245 559 -56 35 -181 76 -247 81 -27 2
-78 1 -112 -3z m211 -223 c76 -35 131 -88 168 -163 30 -61 33 -75 32 -157 0
-108 -20 -159 -93 -235 -92 -99 -244 -137 -361 -91 -148 59 -234 180 -233 330
1 175 116 310 293 344 47 8 142 -5 194 -28z"/>
</g>
</svg>
