<?xml version="1.0" standalone="no"?>
<!DOCTYPE svg PUBLIC "-//W3C//DTD SVG 20010904//EN"
 "http://www.w3.org/TR/2001/REC-SVG-20010904/DTD/svg10.dtd">
<svg version="1.0" xmlns="http://www.w3.org/2000/svg"
 width="410.000000pt" height="417.000000pt" viewBox="0 0 410.000000 417.000000"
 preserveAspectRatio="xMidYMid meet">

<g transform="translate(0.000000,417.000000) scale(0.100000,-0.100000)"
fill="#000000" stroke="none">
<path d="M1975 3544 c-22 -2 -83 -9 -135 -15 -186 -20 -262 -87 -304 -264 -9
-38 -22 -90 -27 -115 -18 -76 -31 -100 -60 -115 -41 -22 -66 -19 -224 26 -159
46 -196 47 -276 6 -138 -70 -404 -533 -402 -702 1 -93 20 -125 153 -254 118
-114 120 -117 120 -161 0 -44 -2 -47 -119 -160 -65 -63 -126 -130 -135 -149
-31 -60 -25 -151 17 -264 65 -172 139 -300 255 -440 114 -138 191 -159 377
-103 181 55 181 55 223 36 44 -20 52 -35 81 -165 36 -155 42 -171 79 -221 73
-97 187 -127 477 -127 273 0 382 26 453 108 47 53 60 83 93 225 49 206 66 216
264 158 71 -20 148 -40 171 -44 87 -13 178 36 263 142 69 86 170 252 203 335
81 201 86 224 68 315 -11 58 -14 62 -134 179 -68 66 -126 131 -130 143 -18 55
0 83 122 198 96 91 120 120 135 160 24 68 22 121 -9 211 -57 167 -140 318
-259 470 -53 68 -77 90 -119 109 -90 41 -124 40 -284 -5 -171 -49 -194 -50
-231 -13 -23 22 -33 51 -56 147 -33 148 -52 191 -105 249 -48 52 -94 70 -215
85 -96 12 -275 20 -330 15z m249 -303 c45 -5 82 -14 86 -22 5 -7 18 -53 30
-101 34 -145 65 -211 130 -277 44 -45 75 -65 136 -91 73 -30 84 -32 159 -27
48 3 118 18 175 36 52 17 102 31 110 31 28 0 134 -153 190 -273 65 -138 68
-124 -47 -235 -115 -111 -145 -162 -163 -272 -10 -63 -9 -86 4 -143 22 -95 51
-139 162 -248 87 -86 95 -97 89 -124 -16 -85 -198 -385 -233 -385 -8 0 -60 14
-116 32 -138 43 -234 44 -334 4 -136 -55 -209 -148 -252 -321 -39 -162 -32
-150 -104 -163 -80 -15 -257 -15 -345 -1 l-68 11 -27 117 c-14 64 -37 139 -50
167 -32 68 -100 133 -189 180 -67 35 -78 38 -157 39 -68 0 -108 -7 -202 -34
-116 -34 -118 -34 -139 -15 -49 44 -163 238 -204 346 l-18 48 105 102 c116
113 143 158 161 263 14 83 -1 181 -39 251 -15 27 -72 93 -127 146 l-99 97 12
38 c32 97 157 310 211 359 19 17 23 16 132 -17 92 -28 127 -34 197 -33 77 0
93 4 162 37 55 27 90 53 130 96 62 67 87 122 118 263 12 54 27 101 33 105 29
19 256 27 381 14z"/>
<path d="M1985 2539 c-234 -35 -423 -202 -489 -431 -24 -84 -22 -247 5 -329
67 -205 217 -351 419 -405 124 -33 283 -20 400 34 207 94 350 315 350 542 0
265 -192 512 -446 574 -82 20 -168 26 -239 15z m208 -317 c191 -87 236 -334
87 -483 -66 -65 -107 -82 -205 -82 -95 0 -153 21 -210 79 -118 117 -119 310
-3 424 93 92 214 114 331 62z"/>
</g>
</svg>
