<?xml version="1.0" standalone="no"?>
<!DOCTYPE svg PUBLIC "-//W3C//DTD SVG 20010904//EN"
 "http://www.w3.org/TR/2001/REC-SVG-20010904/DTD/svg10.dtd">
<svg version="1.0" xmlns="http://www.w3.org/2000/svg"
 width="511.000000pt" height="442.000000pt" viewBox="0 0 511.000000 442.000000"
 preserveAspectRatio="xMidYMid meet">

<g transform="translate(0.000000,442.000000) scale(0.100000,-0.100000)"
fill="#000000" stroke="none">
<path d="M1670 3513 c-37 -14 -82 -57 -242 -234 l-171 -190 -77 76 c-88 85
-135 110 -189 100 -102 -19 -151 -126 -102 -223 11 -20 79 -96 153 -169 111
-108 142 -133 178 -143 57 -15 103 -2 152 42 74 68 454 501 470 536 24 51 22
88 -7 137 -33 57 -110 89 -165 68z"/>
<path d="M2150 3248 c-52 -27 -83 -74 -83 -128 0 -54 31 -101 83 -128 l45 -22
880 2 c829 3 882 4 913 21 36 20 72 83 72 127 0 44 -36 107 -72 127 -31 17
-84 18 -913 21 l-880 2 -45 -22z"/>
<path d="M1651 2503 c-20 -10 -112 -103 -214 -215 l-180 -198 -78 75 c-87 85
-134 110 -188 100 -102 -19 -151 -126 -102 -223 11 -20 79 -96 153 -168 103
-102 143 -134 173 -143 52 -14 57 -14 103 4 30 12 94 77 273 276 232 259 268
307 269 363 0 46 -39 104 -85 126 -50 24 -79 25 -124 3z"/>
<path d="M2153 2251 c-123 -57 -111 -234 19 -270 32 -9 269 -11 913 -9 819 3
872 4 903 21 36 20 72 83 72 127 0 44 -36 107 -72 127 -31 17 -84 18 -913 20
-847 3 -882 2 -922 -16z"/>
<path d="M1201 1308 c-83 -23 -133 -93 -134 -187 -1 -141 117 -229 255 -191
180 50 183 322 4 375 -56 17 -76 17 -125 3z"/>
<path d="M1950 1248 c-52 -27 -83 -74 -83 -128 0 -54 31 -101 83 -128 l45 -22
980 2 c1107 3 1028 -3 1066 81 23 53 23 81 0 134 -38 84 41 78 -1066 81 l-980
2 -45 -22z"/>
</g>
</svg>
